<svg viewBox="0 0 800 400" xmlns="http://www.w3.org/2000/svg">
  <defs>
    <linearGradient id="arrowGradient" x1="0%" y1="0%" x2="100%" y2="0%">
      <stop offset="0%" style="stop-color:#3b82f6;stop-opacity:1" />
      <stop offset="100%" style="stop-color:#8b5cf6;stop-opacity:1" />
    </linearGradient>
    <marker id="arrowhead" markerWidth="10" markerHeight="10" refX="9" refY="3" orient="auto">
      <polygon points="0 0, 10 3, 0 6" fill="url(#arrowGradient)" />
    </marker>
  </defs>

  <g id="grid2x2">
    <rect x="50" y="100" width="200" height="200" fill="none" stroke="#334155" stroke-width="3"/>
    <line x1="150" y1="100" x2="150" y2="300" stroke="#64748b" stroke-width="2"/>
    <line x1="50" y1="200" x2="250" y2="200" stroke="#64748b" stroke-width="2"/>
    <rect x="150" y="100" width="100" height="100" fill="#3b82f6" fill-opacity="0.3" stroke="#3b82f6" stroke-width="2"/>
  </g>

  <g id="arrow">
    <path
      d="M 200 150 Q 400 150 645 175"
      fill="none"
      stroke="url(#arrowGradient)"
      stroke-width="3"
      marker-end="url(#arrowhead)"
    />
  </g>

  <g id="grid4x4">
    <rect x="520" y="100" width="200" height="200" fill="none" stroke="#334155" stroke-width="3"/>
    <line x1="570" y1="100" x2="570" y2="300" stroke="#64748b" stroke-width="1.5"/>
    <line x1="620" y1="100" x2="620" y2="300" stroke="#64748b" stroke-width="1.5"/>
    <line x1="670" y1="100" x2="670" y2="300" stroke="#64748b" stroke-width="1.5"/>
    <line x1="520" y1="150" x2="720" y2="150" stroke="#64748b" stroke-width="1.5"/>
    <line x1="520" y1="200" x2="720" y2="200" stroke="#64748b" stroke-width="1.5"/>
    <line x1="520" y1="250" x2="720" y2="250" stroke="#64748b" stroke-width="1.5"/>
    <rect x="620" y="150" width="50" height="50" fill="#8b5cf6" fill-opacity="0.3" stroke="#8b5cf6" stroke-width="2"/>
  </g>
</svg>
